<svg xmlns="http://www.w3.org/2000/svg" width="1200" height="800" viewBox="0 0 1200 800" fill="none">
  <path d="M-100,200 C370.933819208454,63.26771271444628 890.1235403879524,395.7192600693995 1300,300" stroke="#c4791b" stroke-width="0.75" opacity="0.25" />
  <path d="M-100,220 C319.48232299647987,40.23768804174411 893.0234027531596,400.2862059899861 1300,320" stroke="#c4791b" stroke-width="0.75" opacity="0.25" />
  <path d="M-100,240 C432.27310348927983,71.65143116021954 858.9167315637986,468.65028944857613 1300,340" stroke="#c4791b" stroke-width="0.75" opacity="0.25" />
  <path d="M-100,260 C366.30290508720145,105.4975672582392 856.2014906230673,473.74223949076975 1300,360" stroke="#c4791b" stroke-width="0.75" opacity="0.25" />
  <path d="M-100,280 C396.82230196498915,218.2375838611652 974.3200614245069,479.30507025504414 1300,380" stroke="#c4791b" stroke-width="0.75" opacity="0.25" />
  <path d="M-100,300 C498.5949168712365,235.46805438975105 939.60596730009,505.9671349370612 1300,400" stroke="#c4791b" stroke-width="0.75" opacity="0.25" />
  <path d="M-100,320 C481.9942707408359,240.24553159870175 902.747384301488,504.16961652163104 1300,420" stroke="#c4791b" stroke-width="0.75" opacity="0.25" />
  <path d="M-100,340 C400.1740640096514,239.21306833408997 849.9312183363868,517.8332958858518 1300,440" stroke="#c4791b" stroke-width="0.75" opacity="0.25" />
  <path d="M-100,360 C496.7443246639468,176.15666487870993 803.6470387991893,629.6113555067437 1300,460" stroke="#c4791b" stroke-width="0.75" opacity="0.25" />
  <path d="M-100,380 C344.1083445226358,265.71151974161495 823.8954712304909,554.040114542443 1300,480" stroke="#c4791b" stroke-width="0.75" opacity="0.25" />
  <path d="M-100,400 C356.37258293824186,303.9489958241069 877.8330947156247,591.3815423154829 1300,500" stroke="#c4791b" stroke-width="0.75" opacity="0.25" />
  <path d="M-100,420 C307.978506475935,299.20745977690234 843.8350607654571,628.3603417049075 1300,520" stroke="#c4791b" stroke-width="0.75" opacity="0.25" />
  <path d="M-100,440 C379.5029105378329,315.5075181939155 940.2725300354368,604.4894392174168 1300,540" stroke="#c4791b" stroke-width="0.75" opacity="0.25" />
  <path d="M-100,460 C303.18139352444854,368.6849573649453 875.343247980145,755.8550774871247 1300,560" stroke="#c4791b" stroke-width="0.75" opacity="0.25" />
  <path d="M-100,480 C494.9415354890484,426.16004283781047 808.8212977857173,632.4275057560405 1300,580" stroke="#c4791b" stroke-width="0.75" opacity="0.25" />
  <path d="M-100,500 C327.372952140311,435.85752093193366 910.8221598954644,798.3625577205013 1300,600" stroke="#c4791b" stroke-width="0.75" opacity="0.25" />
  <path d="M-100,520 C352.9111317646548,344.4987526752324 971.6753886812088,728.8106260298947 1300,620" stroke="#c4791b" stroke-width="0.75" opacity="0.25" />
  <path d="M-100,540 C402.3439589071474,484.35244679852804 974.5535293772542,779.2315094456485 1300,640" stroke="#c4791b" stroke-width="0.75" opacity="0.25" />
  <path d="M-100,560 C462.62506031898374,490.1840081129179 892.3951737825345,805.6356831383617 1300,660" stroke="#c4791b" stroke-width="0.75" opacity="0.25" />
  <path d="M-100,580 C324.9920656385685,393.8545810638718 997.599100014871,815.8386362821082 1300,680" stroke="#c4791b" stroke-width="0.75" opacity="0.25" />
  <path d="M-100,600 C503.2084485016901,686.8282344127548 1021.0073053140507,136.86017864518027 1300,200" stroke="#c4791b" stroke-width="0.5" opacity="0.15" />
  <path d="M-100,630 C408.1396533948725,685.8033925912198 1093.8214185970899,211.52367293383332 1300,230" stroke="#c4791b" stroke-width="0.5" opacity="0.15" />
  <path d="M-100,660 C401.69189372620554,731.0549045121065 1051.81251861026,168.62631343144005 1300,260" stroke="#c4791b" stroke-width="0.5" opacity="0.15" />
  <path d="M-100,690 C582.1065006182728,698.9766015283027 1028.1674776285786,268.2830777314848 1300,290" stroke="#c4791b" stroke-width="0.5" opacity="0.15" />
  <path d="M-100,720 C514.3171547188867,810.7724344325023 1029.8547539840424,241.75197033332748 1300,320" stroke="#c4791b" stroke-width="0.5" opacity="0.15" />
  <path d="M-100,750 C509.89423070131704,847.0595152811783 999.1231670420791,254.99679398147978 1300,350" stroke="#c4791b" stroke-width="0.5" opacity="0.15" />
  <path d="M-100,780 C499.1656553715928,812.2533503505153 957.6317215586662,334.87639200019464 1300,380" stroke="#c4791b" stroke-width="0.5" opacity="0.15" />
  <path d="M-100,810 C479.9098882794004,837.3515662277531 909.998293546388,335.0500435515821 1300,410" stroke="#c4791b" stroke-width="0.5" opacity="0.15" />
  <path d="M-100,840 C462.8185537195152,877.5848107271316 969.4738290553715,418.40788437102026 1300,440" stroke="#c4791b" stroke-width="0.5" opacity="0.15" />
  <path d="M-100,870 C473.7988425543857,925.4731380568518 1037.4568582027487,396.52823468181884 1300,470" stroke="#c4791b" stroke-width="0.5" opacity="0.15" />
  <path d="M-100,900 C524.277650103404,979.6075116466892 936.5546589649193,436.0809001437979 1300,500" stroke="#c4791b" stroke-width="0.5" opacity="0.15" />
  <path d="M-100,930 C544.6224163788987,989.9029002757799 1024.5180667238596,505.6256129764333 1300,530" stroke="#c4791b" stroke-width="0.5" opacity="0.15" />
  <path d="M-100,960 C533.2621855392849,970.1411416592225 991.8270641077451,523.5698102991846 1300,560" stroke="#c4791b" stroke-width="0.5" opacity="0.15" />
  <path d="M-100,990 C474.49323017404294,1078.2484568308553 908.0751727432455,540.9443949052286 1300,590" stroke="#c4791b" stroke-width="0.5" opacity="0.15" />
  <path d="M-100,1020 C440.4951270588938,1054.7861517545775 1082.1658726824055,587.4367056922895 1300,620" stroke="#c4791b" stroke-width="0.5" opacity="0.15" />
</svg>